<svg width="660" height="687" viewBox="0 0 660 687" fill="none" xmlns="http://www.w3.org/2000/svg">
<path opacity="0.8" fill-rule="evenodd" clip-rule="evenodd" d="M1277 289.5C1277 289.224 1276.78 289 1276.5 289L372.5 289C332.459 289 300 321.459 300 361.5V901.5C300 901.776 300.224 902 300.5 902C300.776 902 301 901.776 301 901.5V361.5C301 322.012 333.012 290 372.5 290L1276.5 290C1276.78 290 1277 289.776 1277 289.5Z" fill="url(#paint0_linear_20005161_66)"/>
<path opacity="0.65" fill-rule="evenodd" clip-rule="evenodd" d="M1280 231.5C1280 231.224 1279.78 231 1279.5 231L333.5 231C281.309 231 239 273.309 239 325.5V890.5C239 890.776 239.224 891 239.5 891C239.776 891 240 890.776 240 890.5V325.5C240 273.861 281.861 232 333.5 232L1279.5 232C1279.78 232 1280 231.776 1280 231.5Z" fill="url(#paint1_linear_20005161_66)"/>
<path opacity="0.5" fill-rule="evenodd" clip-rule="evenodd" d="M1293 164.5C1293 164.224 1292.78 164 1292.5 164L284.5 164C222.368 164 172 214.368 172 276.5V880.5C172 880.776 172.224 881 172.5 881C172.776 881 173 880.776 173 880.5V276.5C173 214.92 222.92 165 284.5 165L1292.5 165C1292.78 165 1293 164.776 1293 164.5Z" fill="url(#paint2_linear_20005161_66)"/>
<path opacity="0.3" fill-rule="evenodd" clip-rule="evenodd" d="M1297 90.5C1297 90.2239 1296.78 90 1296.5 90L224.5 90C153.531 90 96 147.531 96 218.5V870.5C96 870.776 96.2239 871 96.5 871C96.7761 871 97 870.776 97 870.5V218.5C97 148.084 154.084 91 224.5 91L1296.5 91C1296.78 91 1297 90.7761 1297 90.5Z" fill="url(#paint3_linear_20005161_66)"/>
<path opacity="0.2" fill-rule="evenodd" clip-rule="evenodd" d="M1297 0.5C1297 0.223858 1296.78 0 1296.5 0L132.5 0C59.3224 0 0 59.3223 0 132.5V860.5C0 860.776 0.223877 861 0.5 861C0.776123 861 1 860.776 1 860.5V132.5C1 59.8746 59.8746 1 132.5 1L1296.5 1C1296.78 1 1297 0.776142 1297 0.5Z" fill="url(#paint4_linear_20005161_66)"/>
<defs>
<linearGradient id="paint0_linear_20005161_66" x1="1277" y1="596.967" x2="300" y2="596.967" gradientUnits="userSpaceOnUse">
<stop stop-color="#6366F1"/>
<stop offset="0.5" stop-color="#8B5CF6"/>
<stop offset="1" stop-color="#D946EF"/>
</linearGradient>
<linearGradient id="paint1_linear_20005161_66" x1="1280" y1="562.579" x2="239" y2="562.579" gradientUnits="userSpaceOnUse">
<stop stop-color="#6366F1"/>
<stop offset="0.5" stop-color="#8B5CF6"/>
<stop offset="1" stop-color="#D946EF"/>
</linearGradient>
<linearGradient id="paint2_linear_20005161_66" x1="1293" y1="524.215" x2="172" y2="524.215" gradientUnits="userSpaceOnUse">
<stop stop-color="#6366F1"/>
<stop offset="0.5" stop-color="#8B5CF6"/>
<stop offset="1" stop-color="#D946EF"/>
</linearGradient>
<linearGradient id="paint3_linear_20005161_66" x1="1297" y1="482.369" x2="96" y2="482.369" gradientUnits="userSpaceOnUse">
<stop stop-color="#6366F1"/>
<stop offset="0.5" stop-color="#8B5CF6"/>
<stop offset="1" stop-color="#D946EF"/>
</linearGradient>
<linearGradient id="paint4_linear_20005161_66" x1="1297" y1="432.56" x2="0" y2="432.56" gradientUnits="userSpaceOnUse">
<stop stop-color="#6366F1"/>
<stop offset="0.5" stop-color="#8B5CF6"/>
<stop offset="1" stop-color="#D946EF"/>
</linearGradient>
</defs>
</svg>
